<svg xmlns="http://www.w3.org/2000/svg" width="32" height="32" viewBox="0 0 32 32">
  <defs>
    <linearGradient id="cloudGradient" x1="0%" y1="0%" x2="100%" y2="100%">
      <stop offset="0%" style="stop-color:#4facfe;stop-opacity:1" />
      <stop offset="100%" style="stop-color:#00f2fe;stop-opacity:1" />
    </linearGradient>
  </defs>
  <!-- 背景云朵 -->
  <path d="M24.5,14.5c0,0-1-3-4-3s-5,2-6,2s-3-2-6-2s-4,3-4,3c0,0-1,3,1.5,5.5c1.1,1.2,3.1,2,4.5,2s3,0,4-0.5c0.7-0.4,1.5-0.4,2-0.4 s1.3,0,2,0.4c1,0.5,2,0.5,4,0.5s3.4-0.8,4.5-2C25.5,17.5,24.5,14.5,24.5,14.5z" fill="#f5f5f5" stroke="#e0e0e0" stroke-width="1" />
  <!-- 前景云朵 -->
  <path d="M18.5,20.5c0,0-1-2-3-2s-3,1-4,1s-2-1-3-1s-2,2-2,2c0,0-0.5,2,1.5,3.5c0.8,0.8,2.3,1.2,3.5,1.2s2.3,0,3-0.3 c0.5-0.2,1.2-0.2,1.5-0.2s1,0,1.5,0.2c0.7,0.3,1.5,0.3,3,0.3s2.7-0.4,3.5-1.2C22,22.5,21.5,20.5,18.5,20.5z" fill="url(#cloudGradient)" />
</svg>